# xmcd
#
# Track frame offsets:
#	150
#	20362
#	35802
#	51622
#	63628
#	80553
#	96209
#	112523
#	130057
#	145149
#	161039
#	180615
#	197033
#	218607
#	239840
#	258675
#	276747
#	293185
#	311124
#	324635
#	335587
#
# Disc length: 4688 seconds
#
# Revision: 1
# Processed by: cddbd v1.5.2PL0 Copyright (c) Steve Scherf et al.
# Submitted via: audiograbber 1.83.01
#
DISCID=52124e15
DTITLE=Various Artist - Vanguard 07/20 - May 18, 2007
DYEAR=2007
DGENRE=
TTITLE0=FERGIE - BIG GIRLS DON'T CRY
TTITLE1=CHRIS CORNELL - SHE'LL NEVER BE YOUR MAN
TTITLE2=PAULA DEANDA feat. BOW WOW - EASY (RADIO VERSION)
TTITLE3=MY CHEMICAL ROMANCE - TEENAGERS (RADIO EDIT)
TTITLE4=JC CHASEZ - YOU RUINED ME
TTITLE5=INTERPOL - THE HEINRICH MANEUVER
TTITLE6=MARTINA Mc BRIDE - HOW I FEEL
TTITLE7=COLD WAR KIDS - HOSPITAL BEDS
TTITLE8=DOWN a.k.a KILO - LEAN LIKE A CHOLO (CLEAN)
TTITLE9=THREE DAYS GRACE - NEVER TOO LATE
TTITLE10=MOSES MAYFIELD - FALL BEHIND (EDIT VERSION)
TTITLE11=QUEENS OF THE STONE AGE - SICK, SICK, SICK
TTITLE12=TESLA - THANK YOU
TTITLE13=KEITH ANDERSON - SUNDAY MORNING IN AMERICA (RADIO EDIT)
TTITLE14=DAVID BANNER feat. SNOOP DOG, AKON and LIL WAYNE - SPEAKER (SUPER CLEAN)
TTITLE15=SAOSIN - YOU'RE NOT ALONE
TTITLE16=JOHNETTE NAPOLITANO - AMAZING (RADIO SINGLE)
TTITLE17=AQUALUNG - OUTSIDE
TTITLE18=COLBIE CAILLAT - BUBBLY
TTITLE19=SARA BORGES AND THE BROKEN SINGLES - THE DAY WE MET
TTITLE20=BRIAN LITTRELL - OVER MY HEAD
EXTD=
EXTT0=
EXTT1=
EXTT2=
EXTT3=
EXTT4=
EXTT5=
EXTT6=
EXTT7=
EXTT8=
EXTT9=
EXTT10=
EXTT11=
EXTT12=
EXTT13=
EXTT14=
EXTT15=
EXTT16=
EXTT17=
EXTT18=
EXTT19=
EXTT20=
PLAYORDER=
